# xmcd CD database file
#
# Track frame offsets:
#       150
#       18525
#       33460
#       57349
#       85139
#       104114
#       120644
#       138794
#       168322
#       198087
#       218337
#
# Disc length: 3202 seconds
#
# Revision: 1
# Processed by: cddbd v1.5.2PL0 Copyright (c) Steve Scherf et al.
# Submitted via: jack 3.1.1
#
DISCID=8f0c800b
DTITLE=Holfar Blue - Blue Suede Cadillac
DYEAR=2012
DGENRE=Blues
TTITLE0=The Holfar Shuffle
TTITLE1=That's What She Said
TTITLE2=Fifth Night
TTITLE3=Where is it You're Going
TTITLE4=Here Hands Were Giving Her Away
TTITLE5=Feels Like Home
TTITLE6=Long Long Time Ago
TTITLE7=San Diego Blues
TTITLE8=Turn It Around
TTITLE9=Why I Can't Fly
TTITLE10=Blue Suede Cadillac
EXTD=\nYEAR: 2012  ID3G:   0
EXTT0=
EXTT1=
EXTT2=
EXTT3=
EXTT4=
EXTT5=
EXTT6=
EXTT7=
EXTT8=
EXTT9=
EXTT10=
PLAYORDER=
